Coordinates
version=1
nRows=54
nColumns=12
inDegrees=yes

Units are S.I. units (second, meters, Newtons, ...)
Angles are in degrees

endheader
time	SC_y	SC_z	SC_x	AC_y	AC_z	AC_x	GH_y	GH_z	GH_yy	EL_x	PS_y
       0.0              -28.45          33.85          74.96          56.96         -6.812          11.97          54.84         -18.57          80.02          42.84          41.97
   0.01101              -28.45          33.84          74.95          56.96         -6.811          11.96          54.82         -18.57          80.01          42.85          41.98
   0.02203              -28.44          33.84          74.94          56.96          -6.81          11.96           54.8         -18.57           80.0          42.86          41.99
   0.03304              -28.44          33.83          74.93          56.96         -6.809          11.95          54.78         -18.56          79.99          42.87          42.01
   0.04406              -28.44          33.83          74.92          56.96         -6.808          11.95          54.76         -18.56          79.98          42.88          42.02
   0.05507              -28.43          33.82          74.91          56.97         -6.806          11.94          54.73         -18.56          79.97          42.89          42.04
   0.06608              -28.43          33.82           74.9          56.97         -6.805          11.93          54.71         -18.55          79.96           42.9          42.06
    0.0771              -28.43          33.81          74.89          56.97         -6.803          11.93          54.68         -18.55          79.95          42.91          42.07
   0.08811              -28.42           33.8          74.88          56.97         -6.802          11.92          54.65         -18.54          79.93          42.92          42.09
   0.09912              -28.42           33.8          74.87          56.98           -6.8          11.91          54.62         -18.54          79.92          42.94          42.12
    0.1101              -28.42          33.79          74.86          56.98         -6.798           11.9          54.58         -18.53           79.9          42.95          42.14
    0.1212              -28.41          33.78          74.84          56.98         -6.796           11.9          54.55         -18.52          79.88          42.97          42.16
    0.1322              -28.41          33.77          74.83          56.99         -6.794          11.89          54.51         -18.52          79.87          42.98          42.19
    0.1432               -28.4          33.76          74.81          56.99         -6.791          11.88          54.46         -18.51          79.85           43.0          42.22
    0.1542               -28.4          33.75          74.79           57.0         -6.789          11.87          54.42          -18.5          79.82          43.02          42.25
    0.1652              -28.39          33.74          74.77           57.0         -6.786          11.85          54.37         -18.49           79.8          43.04          42.28
    0.1762              -28.38          33.73          74.75          57.01         -6.783          11.84          54.31         -18.48          79.78          43.07          42.32
    0.1872              -28.38          33.71          74.73          57.01         -6.779          11.83          54.25         -18.47          79.75          43.09          42.36
    0.1982              -28.37           33.7          74.71          57.02         -6.776          11.81          54.19         -18.46          79.72          43.12           42.4
    0.2093              -28.36          33.68          74.68          57.02         -6.772          11.79          54.12         -18.45          79.69          43.15          42.45
    0.2203              -28.35          33.66          74.65          57.03         -6.767          11.77          54.04         -18.44          79.65          43.18           42.5
    0.2313              -28.34          33.65          74.61          57.04         -6.762          11.75          53.95         -18.42          79.61          43.22          42.55
    0.2423              -28.33          33.62          74.58          57.05         -6.757          11.73          53.86         -18.41          79.57          43.26          42.62
    0.2533              -28.32           33.6          74.54          57.06         -6.751          11.71          53.75         -18.39          79.52           43.3          42.69
    0.2643               -28.3          33.57          74.49          57.07         -6.745          11.68          53.63         -18.37          79.46          43.35          42.76
    0.2753              -28.29          33.54          74.44          57.08         -6.737          11.65           53.5         -18.35           79.4          43.41          42.85
    0.2864              -28.27          33.51          74.39          57.09         -6.729          11.61          53.36         -18.32          79.34          43.47          42.95
    0.2974              -28.25          33.47          74.32          57.11          -6.72          11.57          53.19         -18.29          79.26          43.54          43.06
    0.3084              -28.23          33.43          74.25          57.13         -6.709          11.53          53.01         -18.26          79.17          43.62          43.18
    0.3194               -28.2          33.38          74.17          57.15         -6.697          11.48          52.79         -18.23          79.08          43.71          43.32
    0.3304              -28.17          33.33          74.08          57.17         -6.684          11.42          52.55         -18.19          78.96          43.81          43.48
    0.3414              -28.14          33.26          73.97           57.2         -6.668          11.36          52.28         -18.14          78.84          43.93          43.66
    0.3524               -28.1          33.19          73.85          57.22          -6.65          11.28          51.96         -18.08          78.69          44.06          43.87
    0.3635              -28.06           33.1          73.71          57.26          -6.63          11.19          51.59         -18.02          78.52          44.22          44.12
    0.3745              -28.01           33.0          73.54           57.3         -6.605          11.09          51.15         -17.95          78.32           44.4           44.4
    0.3855              -27.95          32.89          73.34          57.35         -6.576          10.97          50.64         -17.86          78.08          44.62          44.74
    0.3965              -27.87          32.75          73.11           57.4         -6.542          10.82          50.03         -17.76           77.8          44.88          45.14
    0.4075              -27.79          32.58          72.83          57.47         -6.501          10.65           49.3         -17.63          77.46          45.19          45.63
    0.4185              -27.68          32.38          72.49          57.55         -6.452          10.44          48.42         -17.48          77.06          45.56          46.21
    0.4295              -27.55          32.13          72.07          57.65         -6.391          10.18          47.34          -17.3          76.56          46.02          46.92
    0.4406              -27.39          31.83          71.56          57.78         -6.316          9.864          46.01         -17.07          75.95          46.58           47.8
    0.4516               -27.2          31.45          70.92          57.93         -6.223           9.47          44.35         -16.79          75.18          47.28          48.89
    0.4626              -26.95          30.97          70.12          58.13         -6.106          8.972          42.26         -16.44          74.22          48.17          50.28
    0.4736              -26.63          30.36           69.1          58.37         -5.957           8.34           39.6         -15.98          72.99           49.3          52.03
    0.4846              -26.22          29.59          67.79          58.69         -5.766           7.53           36.2         -15.41          71.42          50.74          54.28
    0.4956               -25.7          28.59          66.11          59.09          -5.52          6.491          31.83         -14.67          69.41          52.58          57.16
    0.5066              -25.04          27.32          63.97          59.61         -5.207          5.165          26.26         -13.72          66.84          54.95          60.84
    0.5177               -24.2          25.71          61.27          60.26         -4.814          3.496          19.25         -12.53           63.6          57.91          65.47
    0.5287              -23.18          23.76          57.99          61.06         -4.334          1.463           10.7         -11.08          59.66          61.53          71.11
    0.5397               -22.0           21.5          54.18          61.98         -3.778        -0.8937         0.8005         -9.394           55.1          65.73          77.65
    0.5507              -20.72          19.04          50.05          62.97         -3.176         -3.445         -9.923         -7.572          50.15          70.27          84.73
    0.5617              -19.44          16.59          45.93          63.97         -2.573         -5.997         -20.65         -5.751           45.2          74.81          91.81
    0.5727              -18.26          14.33          42.12          64.89         -2.017         -8.354         -30.55         -4.069          40.64           79.0          98.35
    0.5837              -17.24          12.38          38.84          65.68         -1.538         -10.39         -39.09         -2.617           36.7          82.62          104.0
